HIERARCHY
ROOT joint_Root
{
	OFFSET 0.0 0.0 0.0
	CHANNELS 6 Xposition Yposition Zposition Zrotation Xrotation Yrotation 
	JOINT Hips
	{
		OFFSET -17.1583 93.1646 452.98
		CHANNELS 6 Xposition Yposition Zposition Zrotation Xrotation Yrotation 
		JOINT Spine
		{
			OFFSET 15.7357 0.0 0.0
			CHANNELS 6 Xposition Yposition Zposition Zrotation Xrotation Yrotation 
			JOINT Chest
			{
				OFFSET 8.98455 -0.406207 0.0
				CHANNELS 6 Xposition Yposition Zposition Zrotation Xrotation Yrotation 
				JOINT Neck
				{
					OFFSET 16.3773 0.0 0.0
					CHANNELS 6 Xposition Yposition Zposition Zrotation Xrotation Yrotation 
					JOINT Head
					{
						OFFSET 6.45672 0.0 0.0
						CHANNELS 6 Xposition Yposition Zposition Zrotation Xrotation Yrotation 
						End Site
						{
							OFFSET 0.0 0.0 0.0
						}
					}
				}
				JOINT Shoulder_L
				{
					OFFSET 12.9942 -0.242716 4.98039
					CHANNELS 6 Xposition Yposition Zposition Zrotation Xrotation Yrotation 
					JOINT UpperArm_L
					{
						OFFSET 5.34809 0.0 0.0
						CHANNELS 6 Xposition Yposition Zposition Zrotation Xrotation Yrotation 
						JOINT LowerArm_L
						{
							OFFSET 24.3286 1.87007e-05 0.0
							CHANNELS 6 Xposition Yposition Zposition Zrotation Xrotation Yrotation 
							JOINT Hand_L
							{
								OFFSET 22.2916 0.0 0.0
								CHANNELS 6 Xposition Yposition Zposition Zrotation Xrotation Yrotation 
								End Site
								{
									OFFSET 0.0 0.0 0.0
								}
							}
						}
					}
				}
				JOINT Shoulder_R
				{
					OFFSET 12.9945 -0.242716 -4.98039
					CHANNELS 6 Xposition Yposition Zposition Zrotation Xrotation Yrotation 
					JOINT UpperArm_R
					{
						OFFSET -5.34813 0.0 0.0
						CHANNELS 6 Xposition Yposition Zposition Zrotation Xrotation Yrotation 
						JOINT LowerArm_R
						{
							OFFSET -24.3289 0.000322201 0.0
							CHANNELS 6 Xposition Yposition Zposition Zrotation Xrotation Yrotation 
							JOINT Hand_R
							{
								OFFSET -22.2915 -0.000108084 0.0
								CHANNELS 6 Xposition Yposition Zposition Zrotation Xrotation Yrotation 
								End Site
								{
									OFFSET 0.0 0.0 0.0
								}
							}
						}
					}
				}
			}
		}
		JOINT UpperLeg_L
		{
			OFFSET -2.19248 -6.46944 0.0
			CHANNELS 6 Xposition Yposition Zposition Zrotation Xrotation Yrotation 
			JOINT LowerLeg_L
			{
				OFFSET 39.0811 0.0 -1.23785e-05
				CHANNELS 6 Xposition Yposition Zposition Zrotation Xrotation Yrotation 
				JOINT Foot_L
				{
					OFFSET 40.9854 0.0 -1.26872e-05
					CHANNELS 6 Xposition Yposition Zposition Zrotation Xrotation Yrotation 
					JOINT Toes_L
					{
						OFFSET 11.7543 0.0 0.0
						CHANNELS 6 Xposition Yposition Zposition Zrotation Xrotation Yrotation 
						End Site
						{
							OFFSET 0.0 0.0 0.0
						}
					}
				}
			}
		}
		JOINT UpperLeg_R
		{
			OFFSET -2.19251 6.46944 0.0
			CHANNELS 6 Xposition Yposition Zposition Zrotation Xrotation Yrotation 
			JOINT LowerLeg_R
			{
				OFFSET -39.0811 -0.00228153 -0.0401928
				CHANNELS 6 Xposition Yposition Zposition Zrotation Xrotation Yrotation 
				JOINT Foot_R
				{
					OFFSET -40.9854 0.0 0.0
					CHANNELS 6 Xposition Yposition Zposition Zrotation Xrotation Yrotation 
					JOINT Toes_R
					{
						OFFSET -11.7543 0.0 0.0
						CHANNELS 6 Xposition Yposition Zposition Zrotation Xrotation Yrotation 
						End Site
						{
							OFFSET 0.0 0.0 0.0
						}
					}
				}
			}
		}
	}
}
MOTION
Frames:	7
Frame Time:	0.0333333
0.000000 0.000000 0.000000 0.000000 0.000000 -0.000000 0.359880 92.932200 -0.666294 86.580800 -4.060970 -0.278029 15.735700 0.000005 -0.000001 94.068200 87.874800 -92.400800 8.984550 -0.406207 -0.000000 -3.526110 0.137160 3.340030 16.377300 -0.000001 -0.000001 4.888950 4.181690 -1.885520 6.456720 -0.000001 -0.000000 4.106020 4.953320 -4.403670 12.994200 -0.242716 4.980390 -92.854000 8.504770 -71.371400 5.348090 -0.000007 -0.000001 -74.829400 19.619000 4.344050 24.328600 0.000019 0.000005 15.754800 27.184300 -31.696300 22.291600 -0.000001 0.000005 -2.570450 5.029700 6.681300 12.994500 -0.242716 -4.980390 88.403500 5.284380 -73.162500 -5.348130 -0.000001 -0.000004 -71.264000 31.246300 -3.532180 -24.328900 0.000322 -0.000009 2.213660 7.274830 -16.983000 -22.291500 -0.000108 -0.000004 1.882410 5.253410 1.342420 -2.192480 -6.469440 -0.000000 -176.928000 -3.144100 -3.786470 39.081100 -0.000007 -0.000012 0.210499 -0.581332 19.905600 40.985400 -0.000006 -0.000013 3.191610 7.865910 -71.684700 11.754300 -0.000000 0.000003 -0.000293 0.172419 -9.583320 -2.192510 6.469440 -0.000001 -175.126000 5.069020 -179.516000 -39.081100 -0.002282 -0.040193 0.031173 -0.126731 12.388900 -40.985400 0.000008 0.000006 -0.758078 3.592880 -68.355700 -11.754300 -0.000006 -0.000006 -0.011437 0.281743 -5.123860
0.000000 0.000000 0.000000 0.000000 0.000000 -0.000000 0.308758 92.937100 -0.668393 86.571300 -4.119400 -0.361709 15.735700 0.000005 -0.000001 93.669900 87.876000 -91.990000 8.984550 -0.406207 -0.000000 -3.526000 0.106308 3.364120 16.377300 -0.000001 -0.000001 4.811720 4.137070 -1.954500 6.456720 -0.000001 -0.000000 4.007180 4.880470 -4.607680 12.994200 -0.242716 4.980390 -92.861700 8.519780 -71.355000 5.348090 -0.000007 -0.000001 -74.618000 18.330100 4.513210 24.328600 0.000019 0.000005 16.065700 26.632000 -32.719100 22.291600 -0.000001 0.000005 -2.842770 5.023030 6.826140 12.994500 -0.242716 -4.980390 88.414700 5.249280 -73.168900 -5.348130 -0.000001 -0.000004 -71.283900 31.225700 -3.575320 -24.328900 0.000322 -0.000009 2.207080 7.237140 -17.018100 -22.291500 -0.000108 -0.000004 1.908860 5.254700 1.308240 -2.192480 -6.469440 -0.000000 -176.881000 -3.151240 -3.852400 39.081100 -0.000007 -0.000012 0.207278 -0.573440 19.873500 40.985400 -0.000006 -0.000013 3.152830 7.879510 -71.641600 11.754300 -0.000000 0.000003 -0.000290 0.172375 -9.585110 -2.192510 6.469440 -0.000001 -175.086000 5.043100 -179.593000 -39.081100 -0.002282 -0.040193 0.030258 -0.122804 12.365800 -40.985400 0.000008 0.000006 -0.884391 3.588380 -68.309900 -11.754300 -0.000006 -0.000006 -0.011564 0.282643 -5.086990
0.000000 0.000000 0.000000 0.000000 0.000000 -0.000000 0.244442 92.944800 -0.683975 86.565900 -4.142490 -0.508458 15.735700 0.000005 -0.000001 93.596500 87.896100 -91.903100 8.984550 -0.406207 -0.000000 -3.565700 0.096451 3.390780 16.377300 -0.000001 -0.000001 4.693120 4.083120 -2.023860 6.456720 -0.000001 -0.000000 3.892800 4.754380 -4.926690 12.994200 -0.242716 4.980390 -92.888500 8.562380 -71.278900 5.348090 -0.000007 -0.000001 -74.342300 16.838300 4.748840 24.328600 0.000019 0.000005 16.037600 25.158600 -34.066000 22.291600 -0.000001 0.000005 -2.906060 5.009400 7.118860 12.994500 -0.242716 -4.980390 88.419600 5.206370 -73.088500 -5.348130 -0.000001 -0.000004 -71.296900 31.222600 -3.632830 -24.328900 0.000322 -0.000009 2.200030 7.198590 -17.051900 -22.291500 -0.000108 -0.000004 1.898560 5.252660 1.362170 -2.192480 -6.469440 -0.000000 -176.838000 -3.170790 -3.980640 39.081100 -0.000007 -0.000012 0.207582 -0.575450 19.836200 40.985400 -0.000006 -0.000013 3.100270 7.877520 -71.655700 11.754300 -0.000000 0.000003 -0.000191 0.170779 -9.649930 -2.192510 6.469440 -0.000001 -175.026000 4.940650 -179.686000 -39.081100 -0.002282 -0.040193 0.029191 -0.119088 12.249600 -40.985400 0.000008 0.000006 -0.837962 3.587410 -68.257600 -11.754300 -0.000006 -0.000006 -0.011523 0.282351 -5.098950
0.000000 0.000000 0.000000 0.000000 0.000000 -0.000000 0.162059 92.941000 -0.687649 86.548900 -4.158020 -0.602392 15.735700 0.000005 -0.000001 93.541700 87.891300 -91.833400 8.984550 -0.406207 -0.000000 -3.555670 0.091702 3.420410 16.377300 -0.000001 -0.000001 4.557940 3.957530 -2.115740 6.456720 -0.000001 -0.000000 3.717490 4.582640 -5.337980 12.994200 -0.242716 4.980390 -92.920900 8.633190 -71.226500 5.348090 -0.000007 -0.000001 -73.960100 15.242300 5.122320 24.328600 0.000019 0.000005 16.096400 23.196500 -36.228200 22.291600 -0.000001 0.000005 -2.743760 5.007630 7.156920 12.994500 -0.242716 -4.980390 88.423700 5.185640 -73.066300 -5.348130 -0.000001 -0.000004 -71.321900 31.082700 -3.645660 -24.328900 0.000322 -0.000009 2.206890 7.207830 -17.081500 -22.291500 -0.000108 -0.000004 1.917390 5.253270 1.346240 -2.192480 -6.469440 -0.000000 -176.774000 -3.085250 -4.110880 39.081100 -0.000007 -0.000012 0.208393 -0.575711 19.899400 40.985400 -0.000006 -0.000013 3.024150 7.792440 -71.676100 11.754300 -0.000000 0.000003 -0.000301 0.172541 -9.578370 -2.192510 6.469440 -0.000001 -174.942000 4.912690 -179.800000 -39.081100 -0.002282 -0.040193 0.029399 -0.119839 12.270100 -40.985400 0.000008 0.000006 -0.870262 3.544680 -68.215700 -11.754300 -0.000006 -0.000006 -0.011124 0.279519 -5.214890
0.000000 0.000000 0.000000 0.000000 0.000000 -0.000000 0.061262 92.947500 -0.709052 86.505600 -4.110230 -0.765361 15.735700 0.000005 -0.000001 93.759000 87.903700 -92.030600 8.984550 -0.406207 -0.000000 -3.581730 0.103645 3.461150 16.377300 -0.000001 -0.000001 4.402610 3.803510 -2.243560 6.456720 -0.000001 -0.000000 3.496930 4.295970 -5.850700 12.994200 -0.242716 4.980390 -92.939900 8.655890 -71.158800 5.348090 -0.000007 -0.000001 -73.604200 13.356500 5.603810 24.328600 0.000019 0.000005 16.757500 21.383000 -39.552600 22.291600 -0.000001 0.000005 -2.610670 4.999880 7.321190 12.994500 -0.242716 -4.980390 88.430700 5.147120 -73.018500 -5.348130 -0.000001 -0.000004 -71.338200 31.100200 -3.647020 -24.328900 0.000322 -0.000009 2.227630 7.249320 -17.140300 -22.291500 -0.000108 -0.000004 1.866470 5.251250 1.399680 -2.192480 -6.469440 -0.000000 -176.672000 -2.911160 -4.284310 39.081100 -0.000007 -0.000012 0.209211 -0.577452 19.915900 40.985400 -0.000006 -0.000013 2.922890 7.686860 -71.728400 11.754300 -0.000000 0.000003 -0.000333 0.173059 -9.557330 -2.192510 6.469440 -0.000001 -174.818000 4.830970 -179.924000 -39.081100 -0.002282 -0.040193 0.028033 -0.114483 12.174000 -40.985400 0.000008 0.000006 -0.977581 3.471980 -68.187300 -11.754300 -0.000006 -0.000006 -0.012001 0.285692 -4.962140
0.000000 0.000000 0.000000 0.000000 0.000000 -0.000000 -0.056056 92.941200 -0.733720 86.457300 -4.068490 -0.899033 15.735700 0.000005 -0.000001 94.507400 87.893700 -92.771900 8.984550 -0.406207 -0.000000 -3.566470 0.159345 3.477130 16.377300 -0.000001 -0.000001 4.241630 3.601520 -2.352720 6.456720 -0.000001 -0.000000 3.174660 3.926690 -6.448730 12.994200 -0.242716 4.980390 -92.967900 8.682640 -71.045600 5.348090 -0.000007 -0.000001 -73.164200 11.457700 6.303590 24.328600 0.000019 0.000005 18.101800 19.395100 -44.549000 22.291600 -0.000001 0.000005 -2.446570 4.968560 7.981010 12.994500 -0.242716 -4.980390 88.426900 5.138600 -72.953000 -5.348130 -0.000001 -0.000004 -71.335500 31.221900 -3.633360 -24.328900 0.000322 -0.000009 2.187110 7.093490 -17.192800 -22.291500 -0.000108 -0.000004 1.931780 5.252940 1.354940 -2.192480 -6.469440 -0.000000 -176.545000 -2.834030 -4.505320 39.081100 -0.000007 -0.000012 0.209980 -0.575611 20.042200 40.985400 -0.000006 -0.000013 2.837910 7.673340 -71.740900 11.754300 -0.000000 0.000003 -0.000106 0.169383 -9.706650 -2.192510 6.469440 -0.000001 -174.654000 4.734940 179.955000 -39.081100 -0.002282 -0.040193 0.028067 -0.115171 12.119900 -40.985400 0.000008 0.000006 -0.867131 3.324160 -68.135800 -11.754300 -0.000006 -0.000006 -0.011281 0.280642 -5.168930
0.000000 0.000000 0.000000 0.000000 0.000000 -0.000000 -0.199498 92.937100 -0.752693 86.421500 -3.962250 -1.002340 15.735700 0.000005 -0.000001 95.228400 87.883800 -93.496300 8.984550 -0.406207 -0.000000 -3.552120 0.214487 3.472020 16.377300 -0.000001 -0.000001 4.090220 3.338150 -2.530160 6.456720 -0.000001 -0.000000 2.895120 3.433900 -7.084270 12.994200 -0.242716 4.980390 -92.963000 8.615480 -70.938600 5.348090 -0.000007 -0.000001 -72.890500 9.008820 7.142810 24.328600 0.000019 0.000005 19.981100 17.312900 -50.700700 22.291600 -0.000001 0.000005 -1.951290 4.958250 8.194580 12.994500 -0.242716 -4.980390 88.432600 5.098310 -72.885200 -5.348130 -0.000001 -0.000004 -71.392500 31.250300 -3.591410 -24.328900 0.000322 -0.000009 2.194530 7.108400 -17.213800 -22.291500 -0.000108 -0.000004 1.901400 5.251290 1.398830 -2.192480 -6.469440 -0.000000 -176.408000 -2.735890 -4.685190 39.081100 -0.000007 -0.000012 0.213276 -0.580889 20.161300 40.985400 -0.000006 -0.000013 2.737790 7.700340 -71.870400 11.754300 -0.000000 0.000003 -0.000393 0.173991 -9.519460 -2.192510 6.469440 -0.000001 -174.498000 4.700290 179.865000 -39.081100 -0.002282 -0.040193 0.027582 -0.113331 12.076200 -40.985400 0.000008 0.000006 -0.872770 3.185250 -68.115300 -11.754300 -0.000006 -0.000006 -0.011265 0.280523 -5.173780
